<svg width="744" height="356" viewBox="0 0 744 356" fill="none" xmlns="http://www.w3.org/2000/svg">
<g clip-path="url(#clip0_4611_17581)">
<g filter="url(#filter0_ddddd_4611_17581)">
<path d="M255.322 147.998C253.008 118.571 246.548 70.4836 246.548 70.4836L297.668 75.8665L303.769 84.838L311.143 75.1488H338.058L343.244 67.2538L406.242 78.7374L414.495 68.6893L451.817 75.1488L453.97 66.1772L518.009 59C518.009 59 514.331 95.6756 501.699 220.846C515.694 247.761 498.828 272.881 477.655 274.317C460.717 275.465 450.663 266.541 446.595 261.757C441.41 267.857 423.61 279.556 404.088 280.417C384.566 281.279 371.791 273.958 362.46 268.934C358.035 274.317 337.053 290.322 311.502 292.619C265.927 295.848 232.194 271.087 227.888 224.076C224.489 186.98 245.753 157.687 255.322 147.998Z" fill="#070707"/>
<path d="M446.458 271.359C452.852 276.668 463.299 282.273 478.126 281.268C504.29 279.494 523.147 249.786 508.832 219.549C515.033 158.098 519.051 118.233 521.522 93.6821C522.772 81.2741 523.626 72.7777 524.169 67.3831C524.44 64.6859 524.633 62.764 524.758 61.5164L524.896 60.1381L524.93 59.8045L524.938 59.7224L524.94 59.702L524.941 59.6969L524.941 59.6957C524.941 59.6954 524.941 59.6952 518.009 59L524.941 59.6952L525.801 51.1162L517.233 52.0765L453.194 59.2538L448.336 59.7982L447.196 64.5514L446.567 67.1698L415.683 61.8245L411.687 61.1327L409.112 64.2672L403.459 71.1486L344.493 60.3999L339.954 59.5725L337.42 63.4291L334.299 68.182H311.143H307.691L305.6 70.9294L304.087 72.9166L303.429 71.949L301.612 69.2764L298.398 68.938L247.278 63.5551L238.464 62.6269L239.643 71.4111L246.548 70.4836C239.643 71.4111 239.644 71.4111 239.644 71.4114L239.644 71.4128L239.645 71.4189L239.648 71.4442L239.662 71.5462L239.716 71.9507C239.763 72.3075 239.833 72.8357 239.923 73.519C240.104 74.8856 240.364 76.8726 240.684 79.3495C241.324 84.3041 242.202 91.2162 243.151 99.0444C244.923 113.656 246.935 131.364 248.128 145.487C237.111 157.781 217.535 187.438 220.95 224.712C223.25 249.82 233.512 269.624 249.883 282.641C266.191 295.607 287.851 301.279 311.995 299.568L312.06 299.563L312.126 299.557C326.125 298.299 338.696 293.315 348.269 288.034C354.626 284.526 359.965 280.716 363.68 277.494C372.93 282.353 386.01 288.189 404.395 287.377C415.396 286.892 425.696 283.38 433.851 279.274C438.7 276.833 443.035 274.057 446.458 271.359Z" stroke="#070707" stroke-width="13.9336"/>
</g>
<path d="M446.533 266.582C452.022 271.888 462.299 278.72 477.882 277.663C501.474 276.064 519.288 248.708 505.135 220.204C511.395 158.175 515.443 118.006 517.928 93.3202C519.178 80.9124 520.032 72.4162 520.574 67.0218C520.845 64.3247 521.038 62.403 521.164 61.1555L521.302 59.7774L521.336 59.4439L521.344 59.3619L521.346 59.3415L521.346 59.3364L521.346 59.3352C521.346 59.3349 521.346 59.3347 518.009 59L521.346 59.3347L521.761 55.2041L517.635 55.6665L453.596 62.8437L451.258 63.1058L450.708 65.3944L449.289 71.307L415.067 65.384L413.143 65.0509L411.903 66.5601L404.902 75.0835L343.845 63.9538L341.659 63.5554L340.44 65.4123L336.248 71.7944H311.143H309.481L308.474 73.1172L303.922 79.0981L300.442 73.9803L299.567 72.6935L298.019 72.5305L246.9 67.1476L242.656 66.7007L243.224 70.9301L246.548 70.4836C243.224 70.9301 243.224 70.9303 243.224 70.9306L243.224 70.9321L243.225 70.9385L243.228 70.9642L243.242 71.0672L243.296 71.4737C243.344 71.8319 243.414 72.3615 243.505 73.0462C243.686 74.4159 243.947 76.4061 244.267 78.8867C244.908 83.8483 245.787 90.7699 246.737 98.6095C248.576 113.773 250.68 132.321 251.858 146.762C241.511 157.803 221.145 187.244 224.547 224.382C226.771 248.659 236.643 267.498 252.131 279.813C267.589 292.104 288.299 297.626 311.739 295.965L311.771 295.962L311.802 295.96C325.167 294.758 337.252 289.986 346.524 284.871C353.964 280.765 359.805 276.32 363.132 273.108C372.356 278.072 385.309 284.604 404.236 283.768C414.594 283.312 424.391 279.992 432.226 276.048C438.169 273.056 443.173 269.608 446.533 266.582Z" fill="#070707" stroke="url(#paint0_linear_4611_17581)" stroke-width="6.70877"/>
<path d="M490.946 215.584L503.122 77.2969L459.235 86.5544V215.584H490.946Z" fill="white"/>
<path d="M490.86 249.009C491.832 246.838 492.317 244.495 492.317 241.981C492.317 239.524 491.832 237.182 490.86 234.953C489.889 232.725 488.575 230.811 486.918 229.211C485.318 227.554 483.433 226.24 481.261 225.269C479.09 224.297 476.776 223.812 474.319 223.812C471.805 223.812 469.463 224.297 467.291 225.269C465.12 226.24 463.206 227.554 461.549 229.211C459.949 230.811 458.664 232.725 457.693 234.953C456.778 237.182 456.321 239.524 456.321 241.981C456.321 244.495 456.778 246.838 457.693 249.009C458.664 251.18 459.949 253.066 461.549 254.666C463.206 256.322 465.12 257.608 467.291 258.522C469.463 259.494 471.805 259.979 474.319 259.979C476.776 259.979 479.09 259.494 481.261 258.522C483.433 257.608 485.318 256.322 486.918 254.666C488.575 253.066 489.889 251.18 490.86 249.009Z" fill="white"/>
<path fill-rule="evenodd" clip-rule="evenodd" d="M449.048 126.338C449.048 130.178 448.375 133.543 447.029 136.43C445.711 139.29 443.889 141.673 441.562 143.58C439.263 145.486 436.558 146.916 433.446 147.869C430.362 148.822 427.039 149.299 423.479 149.299C422.105 149.299 420.591 149.117 418.937 148.752C417.311 148.388 415.657 147.939 413.975 147.407C412.292 146.846 410.666 146.257 409.096 145.64C407.554 144.995 406.181 144.393 404.975 143.832L406.825 126.506C409.208 127.936 411.844 129.029 414.732 129.786C417.647 130.515 420.507 130.879 423.311 130.879C423.843 130.879 424.488 130.865 425.245 130.837C426.002 130.781 426.717 130.655 427.39 130.459C428.091 130.235 428.679 129.912 429.156 129.492C429.633 129.071 429.871 128.468 429.871 127.683C429.871 127.151 429.703 126.702 429.366 126.338C429.03 125.945 428.595 125.637 428.063 125.412C427.53 125.16 426.927 124.978 426.254 124.866C425.581 124.725 424.923 124.627 424.278 124.571C423.633 124.515 423.03 124.487 422.469 124.487H421.124C418.713 124.487 416.512 124.067 414.521 123.226C412.559 122.384 410.863 121.221 409.433 119.735C408.031 118.221 406.938 116.441 406.153 114.394C405.368 112.319 404.975 110.077 404.975 107.666C404.975 106.137 405.116 104.683 405.397 103.303C405.131 103.791 404.841 104.278 404.529 104.764C403.52 106.306 402.3 107.778 400.871 109.179C399.469 110.553 397.885 111.703 396.118 112.628C396.118 112.6 396.104 112.277 396.076 111.661C396.048 111.016 396.006 110.245 395.95 109.348C395.922 108.422 395.88 107.441 395.824 106.404C395.768 105.367 395.726 104.441 395.698 103.628C394.273 103.1 393.093 102.279 392.157 101.166L392.014 107.245L379.482 107.75L386.492 145.094L360.221 147.701L358.623 108.675L349.038 109.189C349.299 111.008 349.43 112.856 349.43 114.731C349.43 117.17 349.262 119.609 348.925 122.048C344.131 122.356 339.365 122.861 334.627 123.562L320.413 125.581C321.142 127.599 322.277 129.211 323.819 130.417C325.389 131.622 327.254 132.225 329.412 132.225C330.534 132.225 331.753 132.015 333.071 131.594C334.417 131.174 335.748 130.655 337.066 130.038C338.384 129.393 339.645 128.707 340.851 127.978C342.057 127.249 343.094 126.59 343.963 126.001L341.944 145.094C340.851 145.935 339.659 146.65 338.37 147.238C337.108 147.827 335.791 148.304 334.417 148.668L334.402 148.672C337.013 149.526 339.398 150.579 341.557 151.829L339.157 184.568C335.958 183.368 332.644 182.568 329.216 182.168C325.845 181.711 322.531 181.483 319.274 181.483C314.703 181.483 310.418 182.197 306.418 183.625C302.476 184.996 299.019 186.996 296.048 189.625C293.134 192.253 290.82 195.452 289.106 199.223C287.392 202.995 286.535 207.251 286.535 211.994C286.535 214.965 286.935 217.85 287.734 220.65C288.534 223.392 289.734 225.849 291.334 228.02C292.991 230.134 295.019 231.849 297.419 233.163C299.876 234.477 302.704 235.134 305.904 235.134C308.075 235.134 310.303 234.848 312.589 234.277C314.931 233.706 316.931 232.734 318.588 231.363L318.931 224.678L298.362 224.335L299.39 198.624C307.904 198.338 316.417 198.109 324.93 197.938C332.475 197.735 340.064 197.488 347.698 197.196C347.898 196.181 348.125 195.171 348.379 194.167C349.579 189.367 351.293 184.854 353.522 180.626C355.807 176.397 358.55 172.512 361.749 168.97C364.949 165.427 368.52 162.37 372.462 159.799C376.462 157.228 380.776 155.228 385.404 153.8C390.032 152.371 394.917 151.657 400.059 151.657C408.344 151.657 415.886 152.943 422.686 155.514C429.542 158.085 435.37 161.77 440.169 166.57C445.026 171.312 448.769 177.083 451.397 183.882C454.082 190.624 455.425 198.166 455.425 206.508C455.425 211.708 454.825 216.736 453.625 221.593C452.425 226.392 450.683 230.906 448.397 235.134C446.169 239.362 443.426 243.247 440.169 246.79C436.97 250.275 433.342 253.275 429.285 255.789C425.285 258.303 420.914 260.274 416.172 261.703C411.43 263.074 406.402 263.759 401.088 263.759C395.946 263.759 391.032 263.102 386.347 261.788C381.719 260.474 377.376 258.646 373.32 256.303C369.263 253.903 365.577 251.047 362.264 247.733C359.007 244.362 356.207 240.648 353.864 236.591C352.909 234.871 352.038 233.101 351.253 231.282L351.67 254.675C348.985 258.046 345.671 260.988 341.729 263.502C337.786 266.016 333.558 268.102 329.044 269.759C324.53 271.416 319.902 272.644 315.16 273.444C310.418 274.301 305.904 274.73 301.619 274.73C293.334 274.73 285.706 273.244 278.735 270.273C271.765 267.302 265.737 263.217 260.652 258.017C255.624 252.761 251.681 246.59 248.824 239.505C245.967 232.42 244.539 224.792 244.539 216.622C244.539 210.394 245.253 204.309 246.682 198.366C248.11 192.367 250.138 186.739 252.767 181.483C255.452 176.169 258.709 171.312 262.537 166.913C266.365 162.456 270.708 158.628 275.564 155.428C280.421 152.229 285.735 149.743 291.505 147.972C297.276 146.201 303.447 145.315 310.018 145.315C310.71 145.315 311.417 145.324 312.137 145.342C310.335 143.988 308.748 142.405 307.376 140.594C305.98 138.752 304.821 136.743 303.898 134.567L303.061 143.411L268.785 145.64C268.427 144.045 265.197 92.7363 264.12 86.3862L290.866 87.816C290.221 93.9559 289.604 100.096 289.015 106.236C288.426 112.348 288.006 118.515 287.754 124.739C289.071 124.796 290.375 124.824 291.665 124.824H295.576C297.146 124.824 298.688 124.81 300.202 124.782C300.578 124.775 300.957 124.768 301.338 124.763C301.158 123.252 301.068 121.73 301.068 120.198C301.068 117.59 301.306 114.983 301.783 112.376C302.259 109.768 302.974 107.259 303.928 104.848C304.909 102.437 306.128 100.208 307.586 98.1613C309.072 96.0866 310.796 94.2783 312.759 92.7363C314.721 91.1943 316.936 89.9888 319.403 89.1197C321.899 88.2506 324.646 87.816 327.646 87.816C330.141 87.816 332.412 88.1664 334.459 88.8673C336.533 89.5402 338.37 90.4934 339.968 91.727C341.594 92.9326 342.996 94.3764 344.173 96.0586C344.999 97.2108 345.72 98.442 346.335 99.7521L350.606 83.0387L392.424 89.4141C392.491 89.3429 392.559 89.2728 392.628 89.2038C393.441 88.3907 394.38 87.7459 395.446 87.2693C396.511 86.7927 397.66 86.5544 398.894 86.5544C400.1 86.5544 401.235 86.7927 402.3 87.2693C403.394 87.7459 404.333 88.3907 405.118 89.2038C405.931 89.9888 406.576 90.914 407.052 91.9793C407.529 93.0447 407.753 94.1802 407.725 95.3857V95.638C407.71 96.3397 407.62 97.0812 407.454 97.8623C408.73 95.6284 410.343 93.7095 412.292 92.1055C414.535 90.2551 417.101 88.8393 419.988 87.858C422.876 86.8768 425.862 86.3862 428.946 86.3862C430.32 86.3862 431.735 86.4422 433.193 86.5544C434.651 86.6385 436.095 86.8067 437.525 87.059C438.983 87.3113 440.399 87.6338 441.772 88.0263C443.146 88.4188 444.45 88.9094 445.683 89.4982L444.085 106.572C442.179 105.927 440.174 105.395 438.072 104.974C435.997 104.525 433.964 104.301 431.974 104.301C431.609 104.301 431.133 104.315 430.544 104.343C429.983 104.343 429.38 104.385 428.736 104.469C428.119 104.525 427.488 104.624 426.843 104.764C426.198 104.904 425.624 105.1 425.119 105.353C424.614 105.577 424.208 105.885 423.899 106.278C423.591 106.67 423.451 107.133 423.479 107.666C423.507 108.282 423.731 108.787 424.152 109.179C424.6 109.544 425.161 109.838 425.834 110.063C426.535 110.259 427.292 110.399 428.105 110.483C428.946 110.567 429.773 110.623 430.586 110.651H432.857C433.558 110.623 434.132 110.637 434.581 110.693C436.824 110.834 438.843 111.31 440.637 112.123C442.431 112.936 443.945 114.016 445.179 115.361C446.44 116.707 447.394 118.319 448.038 120.198C448.711 122.048 449.048 124.095 449.048 126.338ZM332.356 110.147C332.524 110.96 332.608 111.759 332.608 112.544V113.469L320.16 114.646C320.357 113.749 320.651 112.768 321.044 111.703C321.436 110.637 321.941 109.656 322.558 108.759C323.174 107.834 323.903 107.077 324.744 106.488C325.613 105.871 326.609 105.563 327.73 105.563C328.655 105.563 329.426 105.787 330.043 106.236C330.66 106.656 331.151 107.203 331.515 107.876C331.908 108.549 332.188 109.306 332.356 110.147ZM417.372 208.737C417.372 206.28 417.001 203.909 416.258 201.623C415.572 199.281 414.544 197.224 413.172 195.452C411.801 193.624 410.087 192.167 408.03 191.082C406.03 189.939 403.716 189.367 401.088 189.367C398.403 189.367 396.003 189.853 393.889 190.824C391.775 191.796 389.946 193.138 388.404 194.853C386.918 196.509 385.775 198.481 384.975 200.766C384.175 202.995 383.776 205.366 383.776 207.88C383.776 210.279 384.118 212.679 384.804 215.079C385.49 217.479 386.518 219.65 387.889 221.593C389.261 223.535 390.946 225.106 392.946 226.306C395.003 227.506 397.374 228.106 400.059 228.106C402.745 228.106 405.145 227.592 407.259 226.563C409.43 225.478 411.258 224.049 412.744 222.278C414.229 220.45 415.372 218.364 416.172 216.022C416.972 213.679 417.372 211.251 417.372 208.737Z" fill="white"/>
</g>
<defs>
<filter id="filter0_ddddd_4611_17581" x="209.588" y="41.2324" width="356.006" height="316.6" filterUnits="userSpaceOnUse" color-interpolation-filters="sRGB">
<feFlood flood-opacity="0" result="BackgroundImageFix"/>
<feColorMatrix in="SourceAlpha" type="matrix" values="0 0 0 0 0 0 0 0 0 0 0 0 0 0 0 0 0 0 127 0" result="hardAlpha"/>
<feOffset dx="1" dy="2"/>
<feGaussianBlur stdDeviation="2"/>
<feColorMatrix type="matrix" values="0 0 0 0 0.168627 0 0 0 0 0.0313726 0 0 0 0 0.164706 0 0 0 0.7 0"/>
<feBlend mode="normal" in2="BackgroundImageFix" result="effect1_dropShadow_4611_17581"/>
<feColorMatrix in="SourceAlpha" type="matrix" values="0 0 0 0 0 0 0 0 0 0 0 0 0 0 0 0 0 0 127 0" result="hardAlpha"/>
<feOffset dx="3" dy="6"/>
<feGaussianBlur stdDeviation="3.5"/>
<feColorMatrix type="matrix" values="0 0 0 0 0.168627 0 0 0 0 0.0313726 0 0 0 0 0.164706 0 0 0 0.61 0"/>
<feBlend mode="normal" in2="effect1_dropShadow_4611_17581" result="effect2_dropShadow_4611_17581"/>
<feColorMatrix in="SourceAlpha" type="matrix" values="0 0 0 0 0 0 0 0 0 0 0 0 0 0 0 0 0 0 127 0" result="hardAlpha"/>
<feOffset dx="7" dy="14"/>
<feGaussianBlur stdDeviation="4.5"/>
<feColorMatrix type="matrix" values="0 0 0 0 0.168627 0 0 0 0 0.0313726 0 0 0 0 0.164706 0 0 0 0.36 0"/>
<feBlend mode="normal" in2="effect2_dropShadow_4611_17581" result="effect3_dropShadow_4611_17581"/>
<feColorMatrix in="SourceAlpha" type="matrix" values="0 0 0 0 0 0 0 0 0 0 0 0 0 0 0 0 0 0 127 0" result="hardAlpha"/>
<feOffset dx="13" dy="25"/>
<feGaussianBlur stdDeviation="5.5"/>
<feColorMatrix type="matrix" values="0 0 0 0 0.168627 0 0 0 0 0.0313726 0 0 0 0 0.164706 0 0 0 0.11 0"/>
<feBlend mode="normal" in2="effect3_dropShadow_4611_17581" result="effect4_dropShadow_4611_17581"/>
<feColorMatrix in="SourceAlpha" type="matrix" values="0 0 0 0 0 0 0 0 0 0 0 0 0 0 0 0 0 0 127 0" result="hardAlpha"/>
<feOffset dx="20" dy="39"/>
<feGaussianBlur stdDeviation="6"/>
<feColorMatrix type="matrix" values="0 0 0 0 0.168627 0 0 0 0 0.0313726 0 0 0 0 0.164706 0 0 0 0.01 0"/>
<feBlend mode="normal" in2="effect4_dropShadow_4611_17581" result="effect5_dropShadow_4611_17581"/>
<feBlend mode="normal" in="SourceGraphic" in2="effect5_dropShadow_4611_17581" result="shape"/>
</filter>
<linearGradient id="paint0_linear_4611_17581" x1="372.766" y1="59" x2="372.766" y2="292.899" gradientUnits="userSpaceOnUse">
<stop stop-color="#FFD569"/>
<stop offset="1" stop-color="#D9AF45"/>
</linearGradient>
<clipPath id="clip0_4611_17581">
<rect width="744" height="356" fill="white"/>
</clipPath>
</defs>
</svg>
